<?xml version="1.0" encoding="UTF-8"?>
<!DOCTYPE svg PUBLIC "-//W3C//DTD SVG 1.1//EN" "http://www.w3.org/Graphics/SVG/1.1/DTD/svg11.dtd">
<svg xmlns="http://www.w3.org/2000/svg" version="1.1" width="512px" height="512px" style="shape-rendering:geometricPrecision; text-rendering:geometricPrecision; image-rendering:optimizeQuality; fill-rule:evenodd; clip-rule:evenodd" xmlns:xlink="http://www.w3.org/1999/xlink">
<g><path style="opacity:0.938" fill="#000000" d="M 238.5,8.5 C 249.838,8.33348 261.172,8.50014 272.5,9C 273.931,9.46524 275.097,10.2986 276,11.5C 277.735,16.2062 279.569,20.8729 281.5,25.5C 287.198,27.9006 292.865,30.4006 298.5,33C 304.404,31.9764 310.237,30.4764 316,28.5C 318.891,28.2596 321.391,29.0929 323.5,31C 330.365,37.5307 336.865,44.364 343,51.5C 343.4,58.5605 341.566,65.0605 337.5,71C 341.038,76.7788 343.705,82.9455 345.5,89.5C 350.449,91.7616 355.449,93.9283 360.5,96C 362.377,98.126 363.377,100.626 363.5,103.5C 386.169,103.333 408.836,103.5 431.5,104C 433.667,104.833 435.167,106.333 436,108.5C 436.333,143.5 436.667,178.5 437,213.5C 441.558,207.393 446.558,207.06 452,212.5C 454.037,216.334 453.704,220.001 451,223.5C 445.751,230.996 440.751,238.663 436,246.5C 431.281,251.366 426.281,251.699 421,247.5C 415.333,238.5 409.667,229.5 404,220.5C 402.5,211.333 406.333,207.5 415.5,209C 417.333,209.5 418.5,210.667 419,212.5C 419.5,181.835 419.667,151.168 419.5,120.5C 400.833,120.5 382.167,120.5 363.5,120.5C 363.879,125.297 363.379,129.964 362,134.5C 361.167,135.333 360.333,136.167 359.5,137C 354.903,138.642 350.403,140.476 346,142.5C 343.826,149.012 340.993,155.178 337.5,161C 339.462,165.093 341.296,169.259 343,173.5C 343.79,176.634 343.457,179.634 342,182.5C 335.167,189.333 328.333,196.167 321.5,203C 318.97,204.422 316.303,204.755 313.5,204C 309.167,202.167 304.833,200.333 300.5,198.5C 294.844,201.828 288.844,204.328 282.5,206C 280.143,210.732 277.977,215.566 276,220.5C 272.556,223.883 268.39,225.216 263.5,224.5C 263.333,245.836 263.5,267.169 264,288.5C 266.897,283.845 271.063,282.345 276.5,284C 280.13,287.05 281.297,290.883 280,295.5C 273.624,305.087 267.124,314.587 260.5,324C 255.714,326.262 251.547,325.428 248,321.5C 242.916,312.997 237.583,304.664 232,296.5C 229.003,289.16 231.337,284.493 239,282.5C 242.496,282.911 245.163,284.578 247,287.5C 247.5,266.503 247.667,245.503 247.5,224.5C 242.61,225.216 238.444,223.883 235,220.5C 233.023,215.566 230.857,210.732 228.5,206C 222.156,204.328 216.156,201.828 210.5,198.5C 206.167,200.333 201.833,202.167 197.5,204C 194.697,204.755 192.03,204.422 189.5,203C 182.667,196.167 175.833,189.333 169,182.5C 167.543,179.634 167.21,176.634 168,173.5C 169.704,169.259 171.538,165.093 173.5,161C 170.007,155.178 167.174,149.012 165,142.5C 161.341,140.613 157.508,139.113 153.5,138C 151.714,137.215 150.214,136.049 149,134.5C 147.621,129.964 147.121,125.297 147.5,120.5C 128.833,120.5 110.167,120.5 91.5,120.5C 91.3334,151.168 91.5,181.835 92,212.5C 97,207.167 102,207.167 107,212.5C 108.242,217.694 107.242,222.36 104,226.5C 99.0852,233.328 94.4186,240.328 90,247.5C 84.7186,251.699 79.7186,251.366 75,246.5C 70.3333,239.167 65.6667,231.833 61,224.5C 55.3659,214.255 58.1992,209.088 69.5,209C 71.286,209.785 72.786,210.951 74,212.5C 74.3333,177.833 74.6667,143.167 75,108.5C 75.8333,106.333 77.3333,104.833 79.5,104C 102.164,103.5 124.831,103.333 147.5,103.5C 147.623,100.626 148.623,98.126 150.5,96C 155.551,93.9283 160.551,91.7616 165.5,89.5C 167.295,82.9455 169.962,76.7788 173.5,71C 169.434,65.0605 167.6,58.5605 168,51.5C 174.833,43.3333 182.333,35.8333 190.5,29C 193.5,28.3333 196.5,28.3333 199.5,29C 202.944,31.0558 206.611,32.5558 210.5,33.5C 216.208,30.8746 222.042,28.5412 228,26.5C 231.085,21.9409 233.418,16.9409 235,11.5C 236.145,10.3636 237.312,9.36362 238.5,8.5 Z M 247.5,25.5 C 252.875,25.1718 258.208,25.5052 263.5,26.5C 264.824,31.3089 266.824,35.8089 269.5,40C 279.981,43.4938 290.148,47.6604 300,52.5C 305.012,51.2748 309.679,49.2748 314,46.5C 317.882,50.0456 321.382,53.8789 324.5,58C 322.681,62.4657 321.015,66.9657 319.5,71.5C 323.548,80.2669 327.048,89.2669 330,98.5C 330.707,100.081 331.54,101.581 332.5,103C 336.793,104.931 341.126,106.764 345.5,108.5C 346.662,113.467 346.829,118.467 346,123.5C 341.85,125.329 337.684,127.163 333.5,129C 332.667,129.833 331.833,130.667 331,131.5C 328.689,140.772 325.023,149.439 320,157.5C 319.333,159.5 319.333,161.5 320,163.5C 321.967,167.401 323.3,171.401 324,175.5C 320.651,179.016 317.151,182.349 313.5,185.5C 308.237,182.186 302.571,180.686 296.5,181C 288.315,185.758 279.649,189.424 270.5,192C 266.918,196.571 264.584,201.738 263.5,207.5C 258.167,207.5 252.833,207.5 247.5,207.5C 246.416,201.738 244.082,196.571 240.5,192C 231.351,189.424 222.685,185.758 214.5,181C 208.429,180.686 202.763,182.186 197.5,185.5C 193.849,182.349 190.349,179.016 187,175.5C 187.7,171.401 189.033,167.401 191,163.5C 191.667,161.5 191.667,159.5 191,157.5C 185.977,149.439 182.311,140.772 180,131.5C 175.789,127.869 170.955,125.369 165.5,124C 164.196,118.886 164.196,113.719 165.5,108.5C 170.142,106.787 174.642,104.787 179,102.5C 181.892,92.7126 185.892,83.3792 191,74.5C 191.667,72.5 191.667,70.5 191,68.5C 188.835,64.6729 187.502,60.6729 187,56.5C 190.333,53.1667 193.667,49.8333 197,46.5C 201.321,49.2748 205.988,51.2748 211,52.5C 220.852,47.6604 231.019,43.4938 241.5,40C 244.381,35.5234 246.381,30.6901 247.5,25.5 Z M 251.5,77.5 C 281.119,79.2835 294.953,94.9502 293,124.5C 285.883,145.975 271.05,155.808 248.5,154C 232.766,149.933 222.599,140.099 218,124.5C 215.112,107.48 220.612,93.9801 234.5,84C 239.888,80.7516 245.554,78.5849 251.5,77.5 Z"/></g>
<g><path style="opacity:0.928" fill="#000000" d="M 250.5,60.5 C 281.798,60.3938 301.631,75.3938 310,105.5C 313.457,140.455 298.29,162.288 264.5,171C 230.897,173.71 209.731,158.876 201,126.5C 198.026,89.6667 214.526,67.6667 250.5,60.5 Z M 251.5,77.5 C 245.554,78.5849 239.888,80.7516 234.5,84C 220.612,93.9801 215.112,107.48 218,124.5C 222.599,140.099 232.766,149.933 248.5,154C 271.05,155.808 285.883,145.975 293,124.5C 294.953,94.9502 281.119,79.2835 251.5,77.5 Z"/></g>
<g><path style="opacity:0.934" fill="#000000" d="M 75.5,270.5 C 115.624,269.629 142.458,287.962 156,325.5C 164.562,367.54 149.729,398.04 111.5,417C 72.7362,429.51 41.5696,419.343 18,386.5C 5.95178,363.929 4.28511,340.596 13,316.5C 25.6778,290.078 46.5111,274.745 75.5,270.5 Z M 76.5,287.5 C 115.678,288.016 137.345,307.683 141.5,346.5C 141.672,356.979 139.006,366.645 133.5,375.5C 127.308,364.474 118.641,355.974 107.5,350C 116.91,337.774 117.743,324.941 110,311.5C 100.199,298.345 87.3654,294.178 71.5,299C 53.1801,307.811 47.0135,321.978 53,341.5C 54.2467,344.329 55.7467,346.995 57.5,349.5C 47.1477,356.186 38.8144,364.853 32.5,375.5C 26.6153,366.83 23.9487,357.163 24.5,346.5C 27.0009,313.67 44.3342,294.004 76.5,287.5 Z M 82.5,313.5 C 96.8438,316.854 101.011,325.187 95,338.5C 86.3705,346.699 78.0371,346.366 70,337.5C 65.4903,324.85 69.657,316.85 82.5,313.5 Z M 77.5,361.5 C 99.1051,360.954 113.438,370.787 120.5,391C 104.68,404.418 86.6805,408.418 66.5,403C 58.395,400.785 51.395,396.785 45.5,391C 50.3257,374.669 60.9924,364.836 77.5,361.5 Z"/></g>
<g><path style="opacity:0.935" fill="#000000" d="M 421.5,270.5 C 465.63,270.483 492.797,291.816 503,334.5C 506.784,375.665 489.618,403.831 451.5,419C 413.511,428.342 383.678,416.842 362,384.5C 349.734,359.992 349.401,335.325 361,310.5C 374.674,287.252 394.841,273.919 421.5,270.5 Z M 422.5,287.5 C 453.977,287.156 474.811,301.823 485,331.5C 488.352,346.713 486.518,361.213 479.5,375C 476.489,372.61 473.989,369.443 472,365.5C 466.546,359.203 460.379,353.87 453.5,349.5C 464.234,332.341 462.234,316.841 447.5,303C 433.927,295.388 420.594,295.721 407.5,304C 393.357,318.308 392.024,333.642 403.5,350C 392.693,355.64 384.359,363.807 378.5,374.5C 377.833,375.833 377.167,375.833 376.5,374.5C 365.16,350.58 367.66,328.246 384,307.5C 394.483,296.182 407.316,289.515 422.5,287.5 Z M 427.5,313.5 C 441.101,316.369 445.601,324.369 441,337.5C 432.963,346.366 424.63,346.699 416,338.5C 410.084,325.667 413.917,317.333 427.5,313.5 Z M 422.5,361.5 C 444.381,360.575 458.714,370.409 465.5,391C 449.713,404.415 431.713,408.415 411.5,403C 403.424,400.798 396.424,396.798 390.5,391C 395.546,374.991 406.212,365.158 422.5,361.5 Z"/></g>
<g><path style="opacity:0.935" fill="#000000" d="M 250.5,350.5 C 290.247,351.098 316.414,370.098 329,407.5C 336.233,442.48 325.4,470.314 296.5,491C 258.799,510.633 225.299,505.133 196,474.5C 176.88,447.585 174.546,419.252 189,389.5C 203.154,366.516 223.654,353.516 250.5,350.5 Z M 251.5,367.5 C 281.545,368.059 301.712,382.392 312,410.5C 316.352,426.703 314.352,442.036 306,456.5C 300.219,445.053 291.719,436.219 280.5,430C 289.234,417.199 289.734,404.033 282,390.5C 271.065,377.415 257.565,373.915 241.5,380C 225.942,389.295 220.442,402.795 225,420.5C 226.455,423.912 228.288,427.079 230.5,430C 219.281,436.219 210.781,445.053 205,456.5C 190.068,425.727 195.901,399.561 222.5,378C 231.443,372.192 241.109,368.692 251.5,367.5 Z M 250.5,394.5 C 266.334,393.828 272.501,401.161 269,416.5C 262.608,425.198 254.775,426.698 245.5,421C 237.559,410.268 239.225,401.434 250.5,394.5 Z M 251.5,441.5 C 271.332,441.188 284.832,450.188 292,468.5C 292.667,469.833 292.667,471.167 292,472.5C 268.546,489.246 244.713,489.746 220.5,474C 218.675,472.534 218.175,470.701 219,468.5C 224.598,453.058 235.432,444.058 251.5,441.5 Z"/></g>
</svg>
