<?xml version="1.0" encoding="UTF-8"?>
<!DOCTYPE svg PUBLIC "-//W3C//DTD SVG 1.1//EN" "http://www.w3.org/Graphics/SVG/1.1/DTD/svg11.dtd">
<svg xmlns="http://www.w3.org/2000/svg" version="1.1" width="512px" height="512px" style="shape-rendering:geometricPrecision; text-rendering:geometricPrecision; image-rendering:optimizeQuality; fill-rule:evenodd; clip-rule:evenodd" xmlns:xlink="http://www.w3.org/1999/xlink">
<g><path style="opacity:0.978" fill="#000000" d="M 237.5,31.5 C 303.568,27.2875 355.068,52.2875 392,106.5C 404.445,127.168 412.112,149.502 415,173.5C 415.036,219.528 415.702,265.528 417,311.5C 417.774,315.049 419.107,318.382 421,321.5C 431.421,336.676 442.088,351.676 453,366.5C 461.195,384.206 457.695,399.039 442.5,411C 439.618,412.608 436.618,413.941 433.5,415C 400.495,415.167 367.495,415.667 334.5,416.5C 323.158,456.162 296.825,477.496 255.5,480.5C 214.175,477.496 187.842,456.162 176.5,416.5C 143.505,415.667 110.505,415.167 77.5,415C 58.3746,407.526 50.8746,393.693 55,373.5C 56,371.167 57,368.833 58,366.5C 68.9123,351.676 79.5789,336.676 90,321.5C 91.893,318.382 93.2264,315.049 94,311.5C 95.2976,265.528 95.9643,219.528 96,173.5C 106.744,104.429 145.244,58.929 211.5,37C 220.237,34.8209 228.903,32.9876 237.5,31.5 Z"/></g>
<g><path style="opacity:1" fill="#f5ff55" d="M 254.5,63.5 C 316.53,67.0551 357.697,98.0551 378,156.5C 379.846,163.065 381.18,169.731 382,176.5C 382.946,224.523 383.946,272.523 385,320.5C 387.248,328.33 390.582,335.663 395,342.5C 404.5,356 414,369.5 423.5,383C 311.5,383.667 199.5,383.667 87.5,383C 97.5436,368.413 107.71,353.913 118,339.5C 121.5,333.502 124.167,327.169 126,320.5C 127.054,272.523 128.054,224.523 129,176.5C 135.439,134.084 156.939,101.917 193.5,80C 212.67,69.6573 233.003,64.1573 254.5,63.5 Z"/></g>
<g><path style="opacity:1" fill="#f5ff55" d="M 211.5,415.5 C 240.841,415.167 270.174,415.5 299.5,416.5C 288.074,440.88 269.074,450.38 242.5,445C 227.415,440.08 217.082,430.247 211.5,415.5 Z"/></g>
</svg>
