<?xml version="1.0" encoding="UTF-8"?>
<!DOCTYPE svg PUBLIC "-//W3C//DTD SVG 1.1//EN" "http://www.w3.org/Graphics/SVG/1.1/DTD/svg11.dtd">
<svg xmlns="http://www.w3.org/2000/svg" version="1.1" width="512px" height="512px" style="shape-rendering:geometricPrecision; text-rendering:geometricPrecision; image-rendering:optimizeQuality; fill-rule:evenodd; clip-rule:evenodd" xmlns:xlink="http://www.w3.org/1999/xlink">
<g><path style="opacity:0.958" fill="#000000" d="M -0.5,225.5 C -0.5,216.167 -0.5,206.833 -0.5,197.5C 6.1052,134.127 32.1052,80.294 77.5,36C 93.4772,31.9829 100.977,38.1495 100,54.5C 98.9196,56.9962 97.5862,59.3295 96,61.5C 52.8502,105.496 30.8502,158.496 30,220.5C 26.813,234.344 18.6463,238.51 5.5,233C 2.87922,230.886 0.879222,228.386 -0.5,225.5 Z"/></g>
<g><path style="opacity:0.958" fill="#000000" d="M 511.5,197.5 C 511.5,206.833 511.5,216.167 511.5,225.5C 507.354,233.738 500.687,236.905 491.5,235C 484.947,232.399 481.447,227.566 481,220.5C 480.225,158.465 458.225,105.465 415,61.5C 408.662,52.8824 409.162,44.7158 416.5,37C 422.019,34.1646 427.686,33.8313 433.5,36C 478.895,80.294 504.895,134.127 511.5,197.5 Z"/></g>
<g><path style="opacity:0.956" fill="#000000" d="M 127.5,79.5 C 142.199,80.0151 148.033,87.3484 145,101.5C 132.628,114.584 121.961,128.918 113,144.5C 100.03,171.047 93.03,199.047 92,228.5C 83.7056,237.457 75.0389,237.79 66,229.5C 65.1376,227.913 64.4709,226.246 64,224.5C 62.8716,169.191 81.705,122.025 120.5,83C 122.925,81.7874 125.259,80.6207 127.5,79.5 Z"/></g>
<g><path style="opacity:0.956" fill="#000000" d="M 377.5,79.5 C 382.182,79.338 386.515,80.5046 390.5,83C 429.294,122.02 448.127,169.186 447,224.5C 443.645,233.597 437.145,237.097 427.5,235C 421.902,233.069 418.402,229.236 417,223.5C 416.884,187.49 406.55,154.823 386,125.5C 379.333,117.5 372.667,109.5 366,101.5C 363.225,90.7165 367.058,83.3832 377.5,79.5 Z"/></g>
<g><path style="opacity:0.964" fill="#000000" d="M 246.5,92.5 C 276.989,90.3364 295.989,104.003 303.5,133.5C 350.465,154.316 376.965,190.316 383,241.5C 383.333,270.833 383.667,300.167 384,329.5C 394,349.5 404,369.5 414,389.5C 417.961,400.656 414.461,408.156 403.5,412C 380.169,412.5 356.836,412.667 333.5,412.5C 325.867,445.634 305.534,466.467 272.5,475C 236.19,480.754 207.69,468.587 187,438.5C 182.411,430.328 179.245,421.662 177.5,412.5C 154.164,412.667 130.831,412.5 107.5,412C 96.5391,408.156 93.0391,400.656 97,389.5C 107,369.5 117,349.5 127,329.5C 127.333,299.833 127.667,270.167 128,240.5C 134.5,189.85 161,154.184 207.5,133.5C 212.063,111.608 225.063,97.9413 246.5,92.5 Z"/></g>
<g><path style="opacity:1" fill="#ec5246" d="M 250.5,123.5 C 260.121,122.06 266.955,125.726 271,134.5C 272.085,139.437 272.752,144.437 273,149.5C 274.564,153.788 277.397,156.955 281.5,159C 322.429,172.598 345.929,200.765 352,243.5C 352.333,274.5 352.667,305.5 353,336.5C 359.895,351.289 367.061,365.956 374.5,380.5C 295.167,381.833 215.833,381.833 136.5,380.5C 143.939,365.956 151.105,351.289 158,336.5C 158.333,305.5 158.667,274.5 159,243.5C 165.071,200.765 188.571,172.598 229.5,159C 233.603,156.955 236.436,153.788 238,149.5C 236.617,137.938 240.784,129.271 250.5,123.5 Z"/></g>
<g><path style="opacity:1" fill="#ec5246" d="M 209.5,412.5 C 240.174,412.167 270.841,412.5 301.5,413.5C 288.847,439.896 268.18,449.73 239.5,443C 224.615,437.615 214.615,427.449 209.5,412.5 Z"/></g>
</svg>
