<?xml version="1.0" encoding="UTF-8"?>
<!DOCTYPE svg PUBLIC "-//W3C//DTD SVG 1.1//EN" "http://www.w3.org/Graphics/SVG/1.1/DTD/svg11.dtd">
<svg xmlns="http://www.w3.org/2000/svg" version="1.1" width="512px" height="512px" style="shape-rendering:geometricPrecision; text-rendering:geometricPrecision; image-rendering:optimizeQuality; fill-rule:evenodd; clip-rule:evenodd" xmlns:xlink="http://www.w3.org/1999/xlink">
<g><path style="opacity:0.974" fill="#000000" d="M 249.5,-0.5 C 253.5,-0.5 257.5,-0.5 261.5,-0.5C 266.207,1.71515 269.373,5.38182 271,10.5C 271.333,28.1667 271.667,45.8333 272,63.5C 330.491,72.6724 371.491,104.339 395,158.5C 398.605,168.252 401.271,178.252 403,188.5C 404.078,221.819 405.078,255.152 406,288.5C 410.057,319.941 422.724,347.275 444,370.5C 451,376.167 457.333,382.5 463,389.5C 472.95,409.209 469.784,426.376 453.5,441C 450.446,443.194 447.112,444.861 443.5,446C 407.214,447.308 370.88,447.974 334.5,448C 325.021,482.315 303.021,503.481 268.5,511.5C 259.833,511.5 251.167,511.5 242.5,511.5C 207.09,504.092 185.09,482.758 176.5,447.5C 139.785,447.975 103.118,447.475 66.5,446C 43.7418,434.974 36.5752,417.474 45,393.5C 46.6667,390.833 48.3333,388.167 50,385.5C 83.0398,358.76 101.373,324.093 105,281.5C 105.064,251.139 105.731,220.806 107,190.5C 117.744,133.491 149.911,93.9912 203.5,72C 214.788,68.1441 226.288,65.3108 238,63.5C 238.333,46.1667 238.667,28.8333 239,11.5C 240.963,6.04369 244.463,2.04369 249.5,-0.5 Z"/></g>
<g><path style="opacity:0.96" fill="#000000" d="M 106.5,22.5 C 122.005,24.1678 127.505,32.5012 123,47.5C 77.5023,92.857 54.169,147.857 53,212.5C 50.9909,226.51 43.1576,231.677 29.5,228C 25.6119,225.778 22.7786,222.612 21,218.5C 19.4212,142.534 45.5879,78.0336 99.5,25C 102.004,24.3024 104.337,23.4691 106.5,22.5 Z"/></g>
<g><path style="opacity:0.959" fill="#000000" d="M 400.5,22.5 C 405.312,22.6925 409.645,24.1925 413.5,27C 464.812,79.4962 490.312,142.663 490,216.5C 484.691,229.16 475.858,232.327 463.5,226C 460.533,223.9 458.7,221.066 458,217.5C 457.883,162.143 440.883,112.81 407,69.5C 399.96,62.129 393.294,54.4623 387,46.5C 383.517,33.7846 388.017,25.7846 400.5,22.5 Z"/></g>
<g><path style="opacity:1" fill="#feaa4f" d="M 254.5,95.5 C 299.331,97.6534 333.498,117.653 357,155.5C 364.273,168.985 368.94,183.319 371,198.5C 372.215,229.483 372.882,260.483 373,291.5C 379.013,338.204 399.68,376.87 435,407.5C 435.896,410.025 435.396,412.192 433.5,414C 315.581,415.663 197.581,415.996 79.5,415C 75.086,414.252 73.586,411.752 75,407.5C 113.229,374.711 134.229,333.044 138,282.5C 138.195,253.986 138.695,225.486 139.5,197C 148.147,149.021 175.481,117.021 221.5,101C 232.452,97.9864 243.452,96.1531 254.5,95.5 Z"/></g>
<g><path style="opacity:1" fill="#feaa4f" d="M 210.5,448.5 C 240.003,447.17 269.669,447.17 299.5,448.5C 290.851,467.641 276.017,477.974 255,479.5C 234.119,477.658 219.286,467.325 210.5,448.5 Z"/></g>
</svg>
