<?xml version="1.0" encoding="UTF-8"?>
<!DOCTYPE svg PUBLIC "-//W3C//DTD SVG 1.1//EN" "http://www.w3.org/Graphics/SVG/1.1/DTD/svg11.dtd">
<svg xmlns="http://www.w3.org/2000/svg" version="1.1" width="512px" height="512px" style="shape-rendering:geometricPrecision; text-rendering:geometricPrecision; image-rendering:optimizeQuality; fill-rule:evenodd; clip-rule:evenodd" xmlns:xlink="http://www.w3.org/1999/xlink">
<g><path style="opacity:0.982" fill="#000000" d="M 242.5,-0.5 C 251.167,-0.5 259.833,-0.5 268.5,-0.5C 308.151,7.65175 331.985,31.6518 340,71.5C 342.991,94.8679 337.824,116.201 324.5,135.5C 375.478,165.765 400.811,210.765 400.5,270.5C 417.503,270.333 434.503,270.5 451.5,271C 457.607,274.114 460.94,279.114 461.5,286C 449.657,330.705 437.657,375.372 425.5,420C 435.833,420.333 446.167,420.667 456.5,421C 459.735,422.36 462.235,424.527 464,427.5C 465.641,446.743 465.975,466.077 465,485.5C 460.878,499.123 452.045,507.79 438.5,511.5C 316.167,511.5 193.833,511.5 71.5,511.5C 58.5168,507.349 50.0168,498.682 46,485.5C 45.0255,466.077 45.3588,446.743 47,427.5C 48.7648,424.527 51.2648,422.36 54.5,421C 64.8333,420.667 75.1667,420.333 85.5,420C 73.7728,377.26 62.2728,334.427 51,291.5C 48.2517,282.181 51.0851,275.348 59.5,271C 76.4967,270.5 93.4967,270.333 110.5,270.5C 110.188,210.767 135.521,165.767 186.5,135.5C 170.903,112.927 166.403,88.2598 173,61.5C 184.205,27.3299 207.372,6.6632 242.5,-0.5 Z M 245.5,30.5 C 278.607,28.1272 299.773,42.7939 309,74.5C 311.857,107.631 297.357,128.798 265.5,138C 232.394,140.89 211.228,126.39 202,94.5C 199.347,61.3461 213.847,40.0128 245.5,30.5 Z M 211.5,158.5 C 232.707,169.756 255.041,172.59 278.5,167C 285.514,164.993 292.18,162.16 298.5,158.5C 335.851,175.185 359.018,203.518 368,243.5C 369.165,252.471 369.998,261.471 370.5,270.5C 293.833,270.5 217.167,270.5 140.5,270.5C 141.487,218.475 165.154,181.142 211.5,158.5 Z M 85.5,301.5 C 198.667,300.168 312.001,300.168 425.5,301.5C 414.833,340.833 404.167,380.167 393.5,419.5C 301.5,420.833 209.5,420.833 117.5,419.5C 106.994,380.003 96.3273,340.67 85.5,301.5 Z M 75.5,450.5 C 195.5,450.5 315.5,450.5 435.5,450.5C 435.92,460.247 435.42,469.914 434,479.5C 432.933,480.191 431.766,480.691 430.5,481C 313.833,481.667 197.167,481.667 80.5,481C 77.6667,480.833 76.1667,479.333 76,476.5C 75.5002,467.84 75.3336,459.173 75.5,450.5 Z"/></g>
</svg>
