<?xml version="1.0" encoding="UTF-8"?>
<!DOCTYPE svg PUBLIC "-//W3C//DTD SVG 1.1//EN" "http://www.w3.org/Graphics/SVG/1.1/DTD/svg11.dtd">
<svg xmlns="http://www.w3.org/2000/svg" version="1.1" width="512px" height="512px" style="shape-rendering:geometricPrecision; text-rendering:geometricPrecision; image-rendering:optimizeQuality; fill-rule:evenodd; clip-rule:evenodd" xmlns:xlink="http://www.w3.org/1999/xlink">
<g><path style="opacity:0.945" fill="#000000" d="M 252.5,12.5 C 267.975,12.6401 278.141,19.9734 283,34.5C 283.5,50.4965 283.667,66.4965 283.5,82.5C 326.168,82.3333 368.835,82.5 411.5,83C 432.5,98 453.5,113 474.5,128C 479.103,134.04 478.103,139.04 471.5,143C 451.221,156.946 431.221,171.279 411.5,186C 368.835,186.5 326.168,186.667 283.5,186.5C 283.5,202.5 283.5,218.5 283.5,234.5C 305.924,234.021 328.258,234.521 350.5,236C 351,236.5 351.5,237 352,237.5C 352.667,270.167 352.667,302.833 352,335.5C 351.167,336.333 350.333,337.167 349.5,338C 327.503,338.5 305.503,338.667 283.5,338.5C 283.5,372.833 283.5,407.167 283.5,441.5C 291.988,440.989 300.321,441.822 308.5,444C 317.809,448.651 323.309,456.151 325,466.5C 325.5,477.161 325.667,487.828 325.5,498.5C 278.833,498.5 232.167,498.5 185.5,498.5C 185.333,487.828 185.5,477.161 186,466.5C 188.167,452.333 196.333,444.167 210.5,442C 216.157,441.501 221.824,441.334 227.5,441.5C 227.5,407.167 227.5,372.833 227.5,338.5C 184.832,338.667 142.165,338.5 99.5,338C 78.5,323 57.5,308 36.5,293C 32.545,288.796 32.545,284.629 36.5,280.5C 57.5,265.333 78.5,250.167 99.5,235C 142.165,234.5 184.832,234.333 227.5,234.5C 227.5,218.5 227.5,202.5 227.5,186.5C 205.497,186.667 183.497,186.5 161.5,186C 160.667,185.167 159.833,184.333 159,183.5C 158.333,150.833 158.333,118.167 159,85.5C 159.833,84.6667 160.667,83.8333 161.5,83C 183.497,82.5 205.497,82.3334 227.5,82.5C 227.333,66.4965 227.5,50.4965 228,34.5C 231.65,22.0109 239.817,14.6776 252.5,12.5 Z M 252.5,27.5 C 259.571,27.2837 264.738,30.2837 268,36.5C 268.5,51.8297 268.667,67.163 268.5,82.5C 259.833,82.5 251.167,82.5 242.5,82.5C 242.333,67.163 242.5,51.8297 243,36.5C 245.256,32.47 248.422,29.47 252.5,27.5 Z M 172.5,96.5 C 250.167,96.3333 327.834,96.5 405.5,97C 422.664,109.339 439.664,121.839 456.5,134.5C 439.5,147 422.5,159.5 405.5,172C 327.83,171.893 250.163,172.06 172.5,172.5C 172.5,147.167 172.5,121.833 172.5,96.5 Z M 242.5,186.5 C 251.167,186.5 259.833,186.5 268.5,186.5C 268.5,202.5 268.5,218.5 268.5,234.5C 259.833,234.5 251.167,234.5 242.5,234.5C 242.5,218.5 242.5,202.5 242.5,186.5 Z M 104.5,249.5 C 182.5,249.5 260.5,249.5 338.5,249.5C 338.5,274.5 338.5,299.5 338.5,324.5C 260.833,324.667 183.166,324.5 105.5,324C 88.3358,311.661 71.3358,299.161 54.5,286.5C 71.2344,274.146 87.9011,261.812 104.5,249.5 Z M 242.5,338.5 C 251.167,338.5 259.833,338.5 268.5,338.5C 268.5,372.833 268.5,407.167 268.5,441.5C 259.833,441.5 251.167,441.5 242.5,441.5C 242.5,407.167 242.5,372.833 242.5,338.5 Z M 211.5,456.5 C 240.835,456.333 270.169,456.5 299.5,457C 303.843,458.01 307.01,460.51 309,464.5C 310.37,470.742 310.87,477.075 310.5,483.5C 273.833,483.5 237.167,483.5 200.5,483.5C 200.13,477.075 200.63,470.742 202,464.5C 204.161,460.495 207.328,457.829 211.5,456.5 Z"/></g>
</svg>
