<?xml version="1.0" encoding="UTF-8"?>
<!DOCTYPE svg PUBLIC "-//W3C//DTD SVG 1.1//EN" "http://www.w3.org/Graphics/SVG/1.1/DTD/svg11.dtd">
<svg xmlns="http://www.w3.org/2000/svg" version="1.1" width="512px" height="512px" style="shape-rendering:geometricPrecision; text-rendering:geometricPrecision; image-rendering:optimizeQuality; fill-rule:evenodd; clip-rule:evenodd" xmlns:xlink="http://www.w3.org/1999/xlink">
<g><path style="opacity:0.999" fill="#000000" d="M 123.5,7.5 C 212.248,7.00522 300.915,7.50522 389.5,9C 390.126,9.75044 390.626,10.5838 391,11.5C 391.5,71.4991 391.667,131.499 391.5,191.5C 422.168,191.333 452.835,191.5 483.5,192C 485.333,192.5 486.5,193.667 487,195.5C 487.5,284.833 487.667,374.166 487.5,463.5C 491.514,463.334 495.514,463.501 499.5,464C 501.333,464.5 502.5,465.667 503,467.5C 503.667,478.167 503.667,488.833 503,499.5C 502.5,501.333 501.333,502.5 499.5,503C 336.833,503.667 174.167,503.667 11.5,503C 9.66667,502.5 8.5,501.333 8,499.5C 7.33333,488.833 7.33333,478.167 8,467.5C 8.5,465.667 9.66667,464.5 11.5,464C 15.4862,463.501 19.4862,463.334 23.5,463.5C 23.3333,347.5 23.5,231.5 24,115.5C 24.5,113.667 25.6667,112.5 27.5,112C 58.1649,111.5 88.8315,111.333 119.5,111.5C 119.333,78.165 119.5,44.8317 120,11.5C 120.69,9.64977 121.856,8.31643 123.5,7.5 Z M 135.5,23.5 C 215.5,23.5 295.5,23.5 375.5,23.5C 375.5,170.167 375.5,316.833 375.5,463.5C 356.833,463.5 338.167,463.5 319.5,463.5C 319.989,421.415 319.489,379.415 318,337.5C 317.25,336.874 316.416,336.374 315.5,336C 275.5,335.333 235.5,335.333 195.5,336C 194.584,336.374 193.75,336.874 193,337.5C 191.511,379.415 191.011,421.415 191.5,463.5C 172.833,463.5 154.167,463.5 135.5,463.5C 135.5,316.833 135.5,170.167 135.5,23.5 Z M 167.5,55.5 C 178.167,55.5 188.833,55.5 199.5,55.5C 199.5,71.5 199.5,87.5 199.5,103.5C 188.833,103.5 178.167,103.5 167.5,103.5C 167.5,87.5 167.5,71.5 167.5,55.5 Z M 215.5,55.5 C 226.167,55.5 236.833,55.5 247.5,55.5C 247.5,71.5 247.5,87.5 247.5,103.5C 236.833,103.5 226.167,103.5 215.5,103.5C 215.5,87.5 215.5,71.5 215.5,55.5 Z M 263.5,55.5 C 274.167,55.5 284.833,55.5 295.5,55.5C 295.5,71.5 295.5,87.5 295.5,103.5C 284.833,103.5 274.167,103.5 263.5,103.5C 263.5,87.5 263.5,71.5 263.5,55.5 Z M 311.5,55.5 C 322.167,55.5 332.833,55.5 343.5,55.5C 343.5,71.5 343.5,87.5 343.5,103.5C 332.833,103.5 322.167,103.5 311.5,103.5C 311.5,87.5 311.5,71.5 311.5,55.5 Z M 39.5,127.5 C 66.1667,127.5 92.8333,127.5 119.5,127.5C 119.5,239.5 119.5,351.5 119.5,463.5C 92.8333,463.5 66.1667,463.5 39.5,463.5C 39.5,351.5 39.5,239.5 39.5,127.5 Z M 63.5,151.5 C 74.1667,151.5 84.8333,151.5 95.5,151.5C 95.5,162.167 95.5,172.833 95.5,183.5C 84.8333,183.5 74.1667,183.5 63.5,183.5C 63.5,172.833 63.5,162.167 63.5,151.5 Z M 167.5,151.5 C 178.167,151.5 188.833,151.5 199.5,151.5C 199.5,167.5 199.5,183.5 199.5,199.5C 188.833,199.5 178.167,199.5 167.5,199.5C 167.5,183.5 167.5,167.5 167.5,151.5 Z M 215.5,151.5 C 226.167,151.5 236.833,151.5 247.5,151.5C 247.5,167.5 247.5,183.5 247.5,199.5C 236.833,199.5 226.167,199.5 215.5,199.5C 215.5,183.5 215.5,167.5 215.5,151.5 Z M 263.5,151.5 C 274.167,151.5 284.833,151.5 295.5,151.5C 295.5,167.5 295.5,183.5 295.5,199.5C 284.833,199.5 274.167,199.5 263.5,199.5C 263.5,183.5 263.5,167.5 263.5,151.5 Z M 311.5,151.5 C 322.167,151.5 332.833,151.5 343.5,151.5C 343.5,167.5 343.5,183.5 343.5,199.5C 332.833,199.5 322.167,199.5 311.5,199.5C 311.5,183.5 311.5,167.5 311.5,151.5 Z M 391.5,207.5 C 418.167,207.5 444.833,207.5 471.5,207.5C 471.5,292.833 471.5,378.167 471.5,463.5C 444.833,463.5 418.167,463.5 391.5,463.5C 391.5,378.167 391.5,292.833 391.5,207.5 Z M 63.5,231.5 C 74.1667,231.5 84.8333,231.5 95.5,231.5C 95.5,242.167 95.5,252.833 95.5,263.5C 84.8333,263.5 74.1667,263.5 63.5,263.5C 63.5,252.833 63.5,242.167 63.5,231.5 Z M 415.5,231.5 C 426.167,231.5 436.833,231.5 447.5,231.5C 447.5,242.167 447.5,252.833 447.5,263.5C 436.833,263.5 426.167,263.5 415.5,263.5C 415.5,252.833 415.5,242.167 415.5,231.5 Z M 167.5,247.5 C 178.167,247.5 188.833,247.5 199.5,247.5C 199.5,263.5 199.5,279.5 199.5,295.5C 188.833,295.5 178.167,295.5 167.5,295.5C 167.5,279.5 167.5,263.5 167.5,247.5 Z M 215.5,247.5 C 226.167,247.5 236.833,247.5 247.5,247.5C 247.5,263.5 247.5,279.5 247.5,295.5C 236.833,295.5 226.167,295.5 215.5,295.5C 215.5,279.5 215.5,263.5 215.5,247.5 Z M 263.5,247.5 C 274.167,247.5 284.833,247.5 295.5,247.5C 295.5,263.5 295.5,279.5 295.5,295.5C 284.833,295.5 274.167,295.5 263.5,295.5C 263.5,279.5 263.5,263.5 263.5,247.5 Z M 311.5,247.5 C 322.167,247.5 332.833,247.5 343.5,247.5C 343.5,263.5 343.5,279.5 343.5,295.5C 332.833,295.5 322.167,295.5 311.5,295.5C 311.5,279.5 311.5,263.5 311.5,247.5 Z M 63.5,311.5 C 74.1667,311.5 84.8333,311.5 95.5,311.5C 95.5,322.167 95.5,332.833 95.5,343.5C 84.8333,343.5 74.1667,343.5 63.5,343.5C 63.5,332.833 63.5,322.167 63.5,311.5 Z M 415.5,311.5 C 426.167,311.5 436.833,311.5 447.5,311.5C 447.5,322.167 447.5,332.833 447.5,343.5C 436.833,343.5 426.167,343.5 415.5,343.5C 415.5,332.833 415.5,322.167 415.5,311.5 Z M 207.5,351.5 C 220.833,351.5 234.167,351.5 247.5,351.5C 247.5,388.833 247.5,426.167 247.5,463.5C 234.167,463.5 220.833,463.5 207.5,463.5C 207.5,426.167 207.5,388.833 207.5,351.5 Z M 263.5,351.5 C 276.833,351.5 290.167,351.5 303.5,351.5C 303.5,388.833 303.5,426.167 303.5,463.5C 290.167,463.5 276.833,463.5 263.5,463.5C 263.5,426.167 263.5,388.833 263.5,351.5 Z M 23.5,479.5 C 178.167,479.5 332.833,479.5 487.5,479.5C 487.5,482.167 487.5,484.833 487.5,487.5C 332.833,487.5 178.167,487.5 23.5,487.5C 23.5,484.833 23.5,482.167 23.5,479.5 Z"/></g>
<g><path style="opacity:0.998" fill="#000000" d="M 155.5,39.5 C 222.167,39.3333 288.834,39.5 355.5,40C 357.333,40.5 358.5,41.6667 359,43.5C 359.667,67.5 359.667,91.5 359,115.5C 358.5,117.333 357.333,118.5 355.5,119C 288.833,119.667 222.167,119.667 155.5,119C 153.667,118.5 152.5,117.333 152,115.5C 151.333,91.5 151.333,67.5 152,43.5C 152.69,41.6498 153.856,40.3164 155.5,39.5 Z M 167.5,55.5 C 167.5,71.5 167.5,87.5 167.5,103.5C 178.167,103.5 188.833,103.5 199.5,103.5C 199.5,87.5 199.5,71.5 199.5,55.5C 188.833,55.5 178.167,55.5 167.5,55.5 Z M 215.5,55.5 C 215.5,71.5 215.5,87.5 215.5,103.5C 226.167,103.5 236.833,103.5 247.5,103.5C 247.5,87.5 247.5,71.5 247.5,55.5C 236.833,55.5 226.167,55.5 215.5,55.5 Z M 263.5,55.5 C 263.5,71.5 263.5,87.5 263.5,103.5C 274.167,103.5 284.833,103.5 295.5,103.5C 295.5,87.5 295.5,71.5 295.5,55.5C 284.833,55.5 274.167,55.5 263.5,55.5 Z M 311.5,55.5 C 311.5,71.5 311.5,87.5 311.5,103.5C 322.167,103.5 332.833,103.5 343.5,103.5C 343.5,87.5 343.5,71.5 343.5,55.5C 332.833,55.5 322.167,55.5 311.5,55.5 Z"/></g>
<g><path style="opacity:0.992" fill="#000000" d="M 51.5,135.5 C 70.1696,135.333 88.8363,135.5 107.5,136C 108.416,136.374 109.25,136.874 110,137.5C 111.143,147.405 111.643,157.405 111.5,167.5C 119.833,197.167 109.167,207.833 79.5,199.5C 70.1667,199.333 60.8333,199.167 51.5,199C 50.5838,198.626 49.7504,198.126 49,197.5C 47.3588,178.257 47.0255,158.923 48,139.5C 48.6897,137.65 49.8564,136.316 51.5,135.5 Z M 63.5,151.5 C 63.5,162.167 63.5,172.833 63.5,183.5C 74.1667,183.5 84.8333,183.5 95.5,183.5C 95.5,172.833 95.5,162.167 95.5,151.5C 84.8333,151.5 74.1667,151.5 63.5,151.5 Z"/></g>
<g><path style="opacity:0.998" fill="#000000" d="M 155.5,135.5 C 222.167,135.333 288.834,135.5 355.5,136C 357.333,136.5 358.5,137.667 359,139.5C 359.667,163.5 359.667,187.5 359,211.5C 358.5,213.333 357.333,214.5 355.5,215C 288.833,215.667 222.167,215.667 155.5,215C 153.667,214.5 152.5,213.333 152,211.5C 151.333,187.5 151.333,163.5 152,139.5C 152.69,137.65 153.856,136.316 155.5,135.5 Z M 167.5,151.5 C 167.5,167.5 167.5,183.5 167.5,199.5C 178.167,199.5 188.833,199.5 199.5,199.5C 199.5,183.5 199.5,167.5 199.5,151.5C 188.833,151.5 178.167,151.5 167.5,151.5 Z M 215.5,151.5 C 215.5,167.5 215.5,183.5 215.5,199.5C 226.167,199.5 236.833,199.5 247.5,199.5C 247.5,183.5 247.5,167.5 247.5,151.5C 236.833,151.5 226.167,151.5 215.5,151.5 Z M 263.5,151.5 C 263.5,167.5 263.5,183.5 263.5,199.5C 274.167,199.5 284.833,199.5 295.5,199.5C 295.5,183.5 295.5,167.5 295.5,151.5C 284.833,151.5 274.167,151.5 263.5,151.5 Z M 311.5,151.5 C 311.5,167.5 311.5,183.5 311.5,199.5C 322.167,199.5 332.833,199.5 343.5,199.5C 343.5,183.5 343.5,167.5 343.5,151.5C 332.833,151.5 322.167,151.5 311.5,151.5 Z"/></g>
<g><path style="opacity:0.992" fill="#000000" d="M 51.5,215.5 C 70.1696,215.333 88.8363,215.5 107.5,216C 108.416,216.374 109.25,216.874 110,217.5C 111.143,227.405 111.643,237.405 111.5,247.5C 119.833,277.167 109.167,287.833 79.5,279.5C 70.1667,279.333 60.8333,279.167 51.5,279C 50.5838,278.626 49.7504,278.126 49,277.5C 47.3588,258.257 47.0255,238.923 48,219.5C 48.6897,217.65 49.8564,216.316 51.5,215.5 Z M 63.5,231.5 C 63.5,242.167 63.5,252.833 63.5,263.5C 74.1667,263.5 84.8333,263.5 95.5,263.5C 95.5,252.833 95.5,242.167 95.5,231.5C 84.8333,231.5 74.1667,231.5 63.5,231.5 Z"/></g>
<g><path style="opacity:0.992" fill="#000000" d="M 403.5,215.5 C 422.17,215.333 440.836,215.5 459.5,216C 460.416,216.374 461.25,216.874 462,217.5C 463.143,227.405 463.643,237.405 463.5,247.5C 471.833,277.167 461.167,287.833 431.5,279.5C 422.167,279.333 412.833,279.167 403.5,279C 402.584,278.626 401.75,278.126 401,277.5C 399.359,258.257 399.025,238.923 400,219.5C 400.69,217.65 401.856,216.316 403.5,215.5 Z M 415.5,231.5 C 415.5,242.167 415.5,252.833 415.5,263.5C 426.167,263.5 436.833,263.5 447.5,263.5C 447.5,252.833 447.5,242.167 447.5,231.5C 436.833,231.5 426.167,231.5 415.5,231.5 Z"/></g>
<g><path style="opacity:0.998" fill="#000000" d="M 155.5,231.5 C 222.167,231.333 288.834,231.5 355.5,232C 357.333,232.5 358.5,233.667 359,235.5C 359.667,259.5 359.667,283.5 359,307.5C 358.5,309.333 357.333,310.5 355.5,311C 288.833,311.667 222.167,311.667 155.5,311C 153.667,310.5 152.5,309.333 152,307.5C 151.333,283.5 151.333,259.5 152,235.5C 152.69,233.65 153.856,232.316 155.5,231.5 Z M 167.5,247.5 C 167.5,263.5 167.5,279.5 167.5,295.5C 178.167,295.5 188.833,295.5 199.5,295.5C 199.5,279.5 199.5,263.5 199.5,247.5C 188.833,247.5 178.167,247.5 167.5,247.5 Z M 215.5,247.5 C 215.5,263.5 215.5,279.5 215.5,295.5C 226.167,295.5 236.833,295.5 247.5,295.5C 247.5,279.5 247.5,263.5 247.5,247.5C 236.833,247.5 226.167,247.5 215.5,247.5 Z M 263.5,247.5 C 263.5,263.5 263.5,279.5 263.5,295.5C 274.167,295.5 284.833,295.5 295.5,295.5C 295.5,279.5 295.5,263.5 295.5,247.5C 284.833,247.5 274.167,247.5 263.5,247.5 Z M 311.5,247.5 C 311.5,263.5 311.5,279.5 311.5,295.5C 322.167,295.5 332.833,295.5 343.5,295.5C 343.5,279.5 343.5,263.5 343.5,247.5C 332.833,247.5 322.167,247.5 311.5,247.5 Z"/></g>
<g><path style="opacity:0.992" fill="#000000" d="M 51.5,295.5 C 70.1696,295.333 88.8363,295.5 107.5,296C 108.416,296.374 109.25,296.874 110,297.5C 111.143,307.405 111.643,317.405 111.5,327.5C 119.833,357.167 109.167,367.833 79.5,359.5C 70.1667,359.333 60.8333,359.167 51.5,359C 50.5838,358.626 49.7504,358.126 49,357.5C 47.3588,338.257 47.0255,318.923 48,299.5C 48.6897,297.65 49.8564,296.316 51.5,295.5 Z M 63.5,311.5 C 63.5,322.167 63.5,332.833 63.5,343.5C 74.1667,343.5 84.8333,343.5 95.5,343.5C 95.5,332.833 95.5,322.167 95.5,311.5C 84.8333,311.5 74.1667,311.5 63.5,311.5 Z"/></g>
<g><path style="opacity:0.992" fill="#000000" d="M 403.5,295.5 C 422.17,295.333 440.836,295.5 459.5,296C 460.416,296.374 461.25,296.874 462,297.5C 463.143,307.405 463.643,317.405 463.5,327.5C 471.833,357.167 461.167,367.833 431.5,359.5C 422.167,359.333 412.833,359.167 403.5,359C 402.584,358.626 401.75,358.126 401,357.5C 399.359,338.257 399.025,318.923 400,299.5C 400.69,297.65 401.856,296.316 403.5,295.5 Z M 415.5,311.5 C 415.5,322.167 415.5,332.833 415.5,343.5C 426.167,343.5 436.833,343.5 447.5,343.5C 447.5,332.833 447.5,322.167 447.5,311.5C 436.833,311.5 426.167,311.5 415.5,311.5 Z"/></g>
</svg>
