<?xml version="1.0" encoding="UTF-8"?>
<!DOCTYPE svg PUBLIC "-//W3C//DTD SVG 1.1//EN" "http://www.w3.org/Graphics/SVG/1.1/DTD/svg11.dtd">
<svg xmlns="http://www.w3.org/2000/svg" version="1.1" width="512px" height="512px" style="shape-rendering:geometricPrecision; text-rendering:geometricPrecision; image-rendering:optimizeQuality; fill-rule:evenodd; clip-rule:evenodd" xmlns:xlink="http://www.w3.org/1999/xlink">
<g><path style="opacity:0.949" fill="#000000" d="M 250.5,11.5 C 256.026,10.711 261.026,11.8777 265.5,15C 343.878,78.3799 422.545,141.38 501.5,204C 508.974,209.862 510.474,217.029 506,225.5C 500.209,230.18 494.042,230.68 487.5,227C 410.311,164.977 332.978,103.143 255.5,41.5C 178.022,103.143 100.689,164.977 23.5,227C 12.3957,232.277 5.06241,229.11 1.5,217.5C 1.97376,211.722 4.64043,207.222 9.5,204C 89.7324,139.589 170.066,75.4227 250.5,11.5 Z"/></g>
<g><path style="opacity:0.958" fill="#000000" d="M 60.5,233.5 C 68.4432,232.712 73.6099,236.046 76,243.5C 76.3333,310.833 76.6667,378.167 77,445.5C 80.0985,460.2 88.9318,469.366 103.5,473C 204.833,473.667 306.167,473.667 407.5,473C 422.068,469.366 430.901,460.2 434,445.5C 434.333,378.167 434.667,310.833 435,243.5C 436.623,237.048 440.79,233.715 447.5,233.5C 453.724,233.691 457.89,236.691 460,242.5C 460.667,311.167 460.667,379.833 460,448.5C 454.615,476.218 438.115,493.051 410.5,499C 307.167,499.667 203.833,499.667 100.5,499C 72.8847,493.051 56.3847,476.218 51,448.5C 50.3333,379.833 50.3333,311.167 51,242.5C 52.775,237.888 55.9417,234.888 60.5,233.5 Z"/></g>
<g><path style="opacity:0.958" fill="#000000" d="M 200.5,284.5 C 236.835,284.333 273.168,284.5 309.5,285C 322.333,288.5 330.5,296.667 334,309.5C 334.667,351.5 334.667,393.5 334,435.5C 330.793,443.52 324.959,446.353 316.5,444C 312.942,442.108 310.442,439.275 309,435.5C 308.667,394.833 308.333,354.167 308,313.5C 307.167,312.667 306.333,311.833 305.5,311C 271.833,310.333 238.167,310.333 204.5,311C 203.667,311.833 202.833,312.667 202,313.5C 201.667,354.167 201.333,394.833 201,435.5C 197.793,443.52 191.959,446.353 183.5,444C 181.04,442.542 178.873,440.709 177,438.5C 175.35,395.893 175.016,353.226 176,310.5C 179.25,297.086 187.417,288.419 200.5,284.5 Z"/></g>
</svg>
