<?xml version="1.0" encoding="UTF-8"?>
<!DOCTYPE svg PUBLIC "-//W3C//DTD SVG 1.1//EN" "http://www.w3.org/Graphics/SVG/1.1/DTD/svg11.dtd">
<svg xmlns="http://www.w3.org/2000/svg" version="1.1" width="512px" height="512px" style="shape-rendering:geometricPrecision; text-rendering:geometricPrecision; image-rendering:optimizeQuality; fill-rule:evenodd; clip-rule:evenodd" xmlns:xlink="http://www.w3.org/1999/xlink">
<g><path style="opacity:0.993" fill="#000000" d="M 368.5,23.5 C 405.168,23.3333 441.835,23.5 478.5,24C 482.667,25.5 485.5,28.3333 487,32.5C 487.667,69.1667 487.667,105.833 487,142.5C 485.5,146.667 482.667,149.5 478.5,151C 441.833,151.667 405.167,151.667 368.5,151C 364.333,149.5 361.5,146.667 360,142.5C 359.333,105.833 359.333,69.1667 360,32.5C 361.688,28.3148 364.521,25.3148 368.5,23.5 Z M 375.5,39.5 C 407.5,39.5 439.5,39.5 471.5,39.5C 471.5,71.5 471.5,103.5 471.5,135.5C 439.5,135.5 407.5,135.5 375.5,135.5C 375.5,103.5 375.5,71.5 375.5,39.5 Z"/></g>
<g><path style="opacity:0.918" fill="#000000" d="M 446.5,66.5 C 456.146,65.9734 459.646,70.3067 457,79.5C 445.833,90.6667 434.667,101.833 423.5,113C 420.2,114.879 416.866,114.879 413.5,113C 407.667,107.167 401.833,101.333 396,95.5C 393.208,88.19 395.541,83.5233 403,81.5C 409.413,83.8933 414.746,87.8933 419,93.5C 428.062,84.2704 437.228,75.2704 446.5,66.5 Z"/></g>
<g><path style="opacity:0.994" fill="#000000" d="M 27.5,87.5 C 118.167,87.3333 208.834,87.5 299.5,88C 302.516,89.5286 303.849,92.0286 303.5,95.5C 303.849,98.9714 302.516,101.471 299.5,103C 208.833,103.667 118.167,103.667 27.5,103C 24.484,101.471 23.1506,98.9714 23.5,95.5C 23.2824,91.9342 24.6157,89.2675 27.5,87.5 Z"/></g>
<g><path style="opacity:0.993" fill="#000000" d="M 368.5,191.5 C 405.168,191.333 441.835,191.5 478.5,192C 482.667,193.5 485.5,196.333 487,200.5C 487.667,237.167 487.667,273.833 487,310.5C 485.5,314.667 482.667,317.5 478.5,319C 441.833,319.667 405.167,319.667 368.5,319C 364.333,317.5 361.5,314.667 360,310.5C 359.333,273.833 359.333,237.167 360,200.5C 361.688,196.315 364.521,193.315 368.5,191.5 Z M 375.5,207.5 C 407.5,207.5 439.5,207.5 471.5,207.5C 471.5,239.5 471.5,271.5 471.5,303.5C 439.5,303.5 407.5,303.5 375.5,303.5C 375.5,271.5 375.5,239.5 375.5,207.5 Z"/></g>
<g><path style="opacity:0.918" fill="#000000" d="M 446.5,234.5 C 456.146,233.973 459.646,238.307 457,247.5C 445.833,258.667 434.667,269.833 423.5,281C 420.2,282.879 416.866,282.879 413.5,281C 407.667,275.167 401.833,269.333 396,263.5C 393.208,256.19 395.541,251.523 403,249.5C 409.413,251.893 414.746,255.893 419,261.5C 428.062,252.27 437.228,243.27 446.5,234.5 Z"/></g>
<g><path style="opacity:0.994" fill="#000000" d="M 27.5,247.5 C 118.167,247.333 208.834,247.5 299.5,248C 302.516,249.529 303.849,252.029 303.5,255.5C 303.849,258.971 302.516,261.471 299.5,263C 208.833,263.667 118.167,263.667 27.5,263C 24.484,261.471 23.1506,258.971 23.5,255.5C 23.2824,251.934 24.6157,249.268 27.5,247.5 Z"/></g>
<g><path style="opacity:0.993" fill="#000000" d="M 368.5,359.5 C 405.168,359.333 441.835,359.5 478.5,360C 482.667,361.5 485.5,364.333 487,368.5C 487.667,405.167 487.667,441.833 487,478.5C 485.5,482.667 482.667,485.5 478.5,487C 441.833,487.667 405.167,487.667 368.5,487C 364.333,485.5 361.5,482.667 360,478.5C 359.333,441.833 359.333,405.167 360,368.5C 361.688,364.315 364.521,361.315 368.5,359.5 Z M 375.5,375.5 C 407.5,375.5 439.5,375.5 471.5,375.5C 471.5,407.5 471.5,439.5 471.5,471.5C 439.5,471.5 407.5,471.5 375.5,471.5C 375.5,439.5 375.5,407.5 375.5,375.5 Z"/></g>
<g><path style="opacity:0.918" fill="#000000" d="M 446.5,402.5 C 456.146,401.973 459.646,406.307 457,415.5C 445.833,426.667 434.667,437.833 423.5,449C 420.2,450.879 416.866,450.879 413.5,449C 407.667,443.167 401.833,437.333 396,431.5C 393.208,424.19 395.541,419.523 403,417.5C 409.413,419.893 414.746,423.893 419,429.5C 428.062,420.27 437.228,411.27 446.5,402.5 Z"/></g>
<g><path style="opacity:0.994" fill="#000000" d="M 27.5,407.5 C 118.167,407.333 208.834,407.5 299.5,408C 302.516,409.529 303.849,412.029 303.5,415.5C 303.849,418.971 302.516,421.471 299.5,423C 208.833,423.667 118.167,423.667 27.5,423C 24.484,421.471 23.1506,418.971 23.5,415.5C 23.2824,411.934 24.6157,409.268 27.5,407.5 Z"/></g>
</svg>
