<?xml version="1.0" encoding="UTF-8"?>
<!DOCTYPE svg PUBLIC "-//W3C//DTD SVG 1.1//EN" "http://www.w3.org/Graphics/SVG/1.1/DTD/svg11.dtd">
<svg xmlns="http://www.w3.org/2000/svg" version="1.1" width="512px" height="512px" style="shape-rendering:geometricPrecision; text-rendering:geometricPrecision; image-rendering:optimizeQuality; fill-rule:evenodd; clip-rule:evenodd" xmlns:xlink="http://www.w3.org/1999/xlink">
<g><path style="opacity:0.987" fill="#000000" d="M 99.5,-0.5 C 181.833,-0.5 264.167,-0.5 346.5,-0.5C 361.541,6.76242 366.374,18.4291 361,34.5C 357.694,40.9114 352.528,45.0781 345.5,47C 267.833,47.3333 190.167,47.6667 112.5,48C 96.8313,49.4068 86.6646,57.5735 82,72.5C 81.3333,194.5 81.3333,316.5 82,438.5C 86.6646,453.427 96.8313,461.593 112.5,463C 190.5,463.333 268.5,463.667 346.5,464C 362.437,471.801 366.937,483.968 360,500.5C 356.143,505.532 351.31,509.199 345.5,511.5C 263.5,511.5 181.5,511.5 99.5,511.5C 67.1818,504.355 45.6818,485.022 35,453.5C 34.1184,450.211 33.4517,446.877 33,443.5C 32.3333,318.167 32.3333,192.833 33,67.5C 37.9951,38.0152 54.1617,17.1819 81.5,5C 87.5308,2.83236 93.5308,0.999023 99.5,-0.5 Z"/></g>
<g><path style="opacity:0.987" fill="#000000" d="M 336.5,116.5 C 342.941,116.288 348.941,117.788 354.5,121C 394.667,161.167 434.833,201.333 475,241.5C 479.667,250.833 479.667,260.167 475,269.5C 434.833,309.667 394.667,349.833 354.5,390C 337.788,398.196 325.288,394.029 317,377.5C 314.751,369.742 315.751,362.408 320,355.5C 345.167,330.333 370.333,305.167 395.5,280C 330.5,279.667 265.5,279.333 200.5,279C 186.518,273.543 181.018,263.376 184,248.5C 186.833,240.333 192.333,234.833 200.5,232C 265.5,231.667 330.5,231.333 395.5,231C 370.333,205.833 345.167,180.667 320,155.5C 313.101,143.189 314.601,132.023 324.5,122C 328.284,119.471 332.284,117.638 336.5,116.5 Z"/></g>
</svg>
