<?xml version="1.0" encoding="UTF-8"?>
<!DOCTYPE svg PUBLIC "-//W3C//DTD SVG 1.1//EN" "http://www.w3.org/Graphics/SVG/1.1/DTD/svg11.dtd">
<svg xmlns="http://www.w3.org/2000/svg" version="1.1" width="512px" height="512px" style="shape-rendering:geometricPrecision; text-rendering:geometricPrecision; image-rendering:optimizeQuality; fill-rule:evenodd; clip-rule:evenodd" xmlns:xlink="http://www.w3.org/1999/xlink">
<g><path style="opacity:0.937" fill="#000000" d="M 244.5,-0.5 C 251.833,-0.5 259.167,-0.5 266.5,-0.5C 303.028,10.9063 317.861,35.573 311,73.5C 307.141,86.1817 299.974,96.5151 289.5,104.5C 324.725,117.224 346.225,141.89 354,178.5C 355.524,197.474 355.858,216.474 355,235.5C 354.315,238.057 352.815,239.891 350.5,241C 287.167,241.667 223.833,241.667 160.5,241C 158.185,239.891 156.685,238.057 156,235.5C 155.333,219.5 155.333,203.5 156,187.5C 160.623,146.256 182.456,118.589 221.5,104.5C 195.778,81.7186 190.945,55.0519 207,24.5C 216.501,11.5106 229.001,3.17729 244.5,-0.5 Z M 254.5,15.5 C 279.963,17.7968 293.963,31.6301 296.5,57C 294.239,82.0944 280.572,95.5944 255.5,97.5C 230.428,95.5944 216.761,82.0944 214.5,57C 216.867,32.4676 230.201,18.6343 254.5,15.5 Z M 251.5,117.5 C 254.167,117.5 256.833,117.5 259.5,117.5C 262.002,136.847 264.668,156.18 267.5,175.5C 267.378,177.791 266.545,179.791 265,181.5C 262.055,185.067 258.889,188.4 255.5,191.5C 252.111,188.4 248.945,185.067 246,181.5C 244.455,179.791 243.622,177.791 243.5,175.5C 246.332,156.18 248.998,136.847 251.5,117.5 Z M 231.5,119.5 C 232.552,119.351 233.552,119.517 234.5,120C 231.366,140.103 228.366,160.27 225.5,180.5C 225.899,182.197 226.399,183.863 227,185.5C 234.833,194.667 242.667,203.833 250.5,213C 253.833,215 257.167,215 260.5,213C 269.454,203.389 277.62,193.222 285,182.5C 282.821,161.583 279.988,140.749 276.5,120C 309.244,127.41 329.41,147.577 337,180.5C 338.328,195.133 338.828,209.8 338.5,224.5C 331.5,224.5 324.5,224.5 317.5,224.5C 317.667,210.496 317.5,196.496 317,182.5C 314.163,176.458 309.663,174.958 303.5,178C 302.299,178.903 301.465,180.069 301,181.5C 300.5,195.829 300.333,210.163 300.5,224.5C 270.5,224.5 240.5,224.5 210.5,224.5C 210.667,210.163 210.5,195.829 210,181.5C 206.634,176.391 202.134,175.224 196.5,178C 195.54,179.419 194.707,180.919 194,182.5C 193.5,196.496 193.333,210.496 193.5,224.5C 186.5,224.5 179.5,224.5 172.5,224.5C 172.333,212.495 172.5,200.495 173,188.5C 177.575,152.764 197.075,129.764 231.5,119.5 Z"/></g>
<g><path style="opacity:0.937" fill="#000000" d="M 241.5,511.5 C 195.5,511.5 149.5,511.5 103.5,511.5C 101.099,510.254 99.5985,508.254 99,505.5C 98.3333,478.833 98.3333,452.167 99,425.5C 100.167,423 102,421.167 104.5,420C 110.491,419.501 116.491,419.334 122.5,419.5C 122.736,416.774 121.903,414.441 120,412.5C 94.6667,387.833 69.3333,363.167 44,338.5C 31.6508,321.103 27.3175,301.769 31,280.5C 37.6912,228.946 43.3579,177.279 48,125.5C 51.0309,110.803 60.0309,102.803 75,101.5C 85.4672,101.398 93.4672,105.732 99,114.5C 105.354,145.625 110.521,176.959 114.5,208.5C 123.181,207.257 130.014,210.257 135,217.5C 164.401,256.636 193.068,296.303 221,336.5C 223.466,341.232 225.133,346.232 226,351.5C 226.5,374.164 226.667,396.831 226.5,419.5C 231.511,419.334 236.511,419.501 241.5,420C 244.102,420.935 245.602,422.768 246,425.5C 246.667,452.5 246.667,479.5 246,506.5C 244.975,508.687 243.475,510.354 241.5,511.5 Z M 72.5,118.5 C 77.42,117.881 81.2534,119.547 84,123.5C 89.8723,156.567 95.039,189.733 99.5,223C 97.1362,229.091 94.9695,235.258 93,241.5C 92.3333,245.5 92.3333,249.5 93,253.5C 108.335,283.834 122.835,314.501 136.5,345.5C 146.179,349.081 150.679,345.748 150,335.5C 138.307,306.112 124.974,277.446 110,249.5C 109.599,245.684 110.266,242.017 112,238.5C 113.672,233.822 115.839,229.489 118.5,225.5C 127.137,235.431 135.304,245.764 143,256.5C 163.421,285.676 184.088,314.676 205,343.5C 206.893,346.618 208.226,349.951 209,353.5C 209.5,375.497 209.667,397.497 209.5,419.5C 186.167,419.5 162.833,419.5 139.5,419.5C 140.125,413.544 138.625,408.211 135,403.5C 108.415,377.916 82.0817,351.916 56,325.5C 52.7204,321.342 50.3871,316.675 49,311.5C 47.4688,301.552 47.1355,291.552 48,281.5C 54.618,230.271 60.2847,178.938 65,127.5C 65.9227,123.086 68.4227,120.086 72.5,118.5 Z M 115.5,436.5 C 153.5,436.5 191.5,436.5 229.5,436.5C 229.5,455.833 229.5,475.167 229.5,494.5C 191.496,494.438 153.496,494.772 115.5,495.5C 115.5,475.833 115.5,456.167 115.5,436.5 Z"/></g>
<g><path style="opacity:0.937" fill="#000000" d="M 407.5,511.5 C 361.5,511.5 315.5,511.5 269.5,511.5C 267.525,510.354 266.025,508.687 265,506.5C 264.333,479.5 264.333,452.5 265,425.5C 265.398,422.768 266.898,420.935 269.5,420C 274.489,419.501 279.489,419.334 284.5,419.5C 284.333,396.831 284.5,374.164 285,351.5C 285.867,346.232 287.534,341.232 290,336.5C 317.932,296.303 346.599,256.636 376,217.5C 380.986,210.257 387.819,207.257 396.5,208.5C 400.479,176.959 405.646,145.625 412,114.5C 421.122,102.128 432.955,98.6283 447.5,104C 456.47,108.444 461.636,115.611 463,125.5C 467.642,177.279 473.309,228.945 480,280.5C 481.634,295.151 480.3,309.484 476,323.5C 473.458,329.365 470.125,334.699 466,339.5C 441,363.833 416,388.167 391,412.5C 389.097,414.441 388.264,416.774 388.5,419.5C 394.509,419.334 400.509,419.501 406.5,420C 409,421.167 410.833,423 412,425.5C 412.667,452.167 412.667,478.833 412,505.5C 411.401,508.254 409.901,510.254 407.5,511.5 Z M 432.5,118.5 C 439.496,117.906 443.996,120.906 446,127.5C 450.68,178.942 456.347,230.275 463,281.5C 463.865,291.552 463.531,301.552 462,311.5C 460.613,316.675 458.28,321.342 455,325.5C 428.918,351.916 402.585,377.916 376,403.5C 372.375,408.211 370.875,413.544 371.5,419.5C 348.167,419.5 324.833,419.5 301.5,419.5C 301.333,397.497 301.5,375.497 302,353.5C 302.774,349.951 304.107,346.618 306,343.5C 326.912,314.676 347.579,285.676 368,256.5C 375.696,245.764 383.863,235.431 392.5,225.5C 395.161,229.489 397.328,233.822 399,238.5C 400.734,242.017 401.401,245.684 401,249.5C 386.12,277.487 372.786,306.154 361,335.5C 360.321,345.748 364.821,349.081 374.5,345.5C 388.165,314.501 402.665,283.834 418,253.5C 418.667,249.5 418.667,245.5 418,241.5C 416.031,235.258 413.864,229.091 411.5,223C 415.961,189.733 421.128,156.567 427,123.5C 428.352,121.251 430.185,119.584 432.5,118.5 Z M 281.5,436.5 C 319.5,436.5 357.5,436.5 395.5,436.5C 395.5,456.167 395.5,475.833 395.5,495.5C 357.504,494.772 319.504,494.438 281.5,494.5C 281.5,475.167 281.5,455.833 281.5,436.5 Z"/></g>
</svg>
