<?xml version="1.0" encoding="UTF-8"?>
<!DOCTYPE svg PUBLIC "-//W3C//DTD SVG 1.1//EN" "http://www.w3.org/Graphics/SVG/1.1/DTD/svg11.dtd">
<svg xmlns="http://www.w3.org/2000/svg" version="1.1" width="512px" height="512px" style="shape-rendering:geometricPrecision; text-rendering:geometricPrecision; image-rendering:optimizeQuality; fill-rule:evenodd; clip-rule:evenodd" xmlns:xlink="http://www.w3.org/1999/xlink">
<g><path style="opacity:1" fill="#000000" d="M 47.5,7.5 C 186.167,7.5 324.833,7.5 463.5,7.5C 463.5,87.5 463.5,167.5 463.5,247.5C 324.833,247.5 186.167,247.5 47.5,247.5C 47.5,167.5 47.5,87.5 47.5,7.5 Z M 63.5,23.5 C 191.5,23.5 319.5,23.5 447.5,23.5C 447.5,82.1667 447.5,140.833 447.5,199.5C 436.833,199.5 426.167,199.5 415.5,199.5C 415.5,188.833 415.5,178.167 415.5,167.5C 388.833,167.5 362.167,167.5 335.5,167.5C 335.5,178.167 335.5,188.833 335.5,199.5C 244.833,199.5 154.167,199.5 63.5,199.5C 63.5,140.833 63.5,82.1667 63.5,23.5 Z M 351.5,183.5 C 367.5,183.5 383.5,183.5 399.5,183.5C 399.5,188.833 399.5,194.167 399.5,199.5C 383.5,199.5 367.5,199.5 351.5,199.5C 351.5,194.167 351.5,188.833 351.5,183.5 Z M 63.5,215.5 C 191.5,215.5 319.5,215.5 447.5,215.5C 447.5,220.833 447.5,226.167 447.5,231.5C 319.5,231.5 191.5,231.5 63.5,231.5C 63.5,226.167 63.5,220.833 63.5,215.5 Z"/></g>
<g><path style="opacity:0.995" fill="#000000" d="M -0.5,343.5 C -0.5,327.5 -0.5,311.5 -0.5,295.5C 15.5,295.5 31.5,295.5 47.5,295.5C 47.2049,284.925 51.8716,277.425 61.5,273C 80.7709,271.851 100.104,271.351 119.5,271.5C 137.833,271.667 156.167,271.833 174.5,272C 185.802,275.796 191.468,283.629 191.5,295.5C 207.5,295.5 223.5,295.5 239.5,295.5C 239.5,311.5 239.5,327.5 239.5,343.5C 234.167,343.5 228.833,343.5 223.5,343.5C 223.5,386.167 223.5,428.833 223.5,471.5C 218.167,471.5 212.833,471.5 207.5,471.5C 207.5,428.833 207.5,386.167 207.5,343.5C 201.794,343.171 196.128,343.505 190.5,344.5C 184.05,357.224 173.716,362.224 159.5,359.5C 159.5,372.833 159.5,386.167 159.5,399.5C 170.167,399.5 180.833,399.5 191.5,399.5C 191.5,415.5 191.5,431.5 191.5,447.5C 186.167,447.5 180.833,447.5 175.5,447.5C 175.5,466.167 175.5,484.833 175.5,503.5C 170.167,503.5 164.833,503.5 159.5,503.5C 159.5,484.833 159.5,466.167 159.5,447.5C 132.833,447.5 106.167,447.5 79.5,447.5C 79.5,466.167 79.5,484.833 79.5,503.5C 74.1667,503.5 68.8333,503.5 63.5,503.5C 63.5,484.833 63.5,466.167 63.5,447.5C 58.1667,447.5 52.8333,447.5 47.5,447.5C 47.5,431.5 47.5,415.5 47.5,399.5C 58.1667,399.5 68.8333,399.5 79.5,399.5C 79.5,386.167 79.5,372.833 79.5,359.5C 65.2837,362.224 54.9504,357.224 48.5,344.5C 42.8722,343.505 37.2055,343.171 31.5,343.5C 31.5,386.167 31.5,428.833 31.5,471.5C 26.1667,471.5 20.8333,471.5 15.5,471.5C 15.5,428.833 15.5,386.167 15.5,343.5C 10.1667,343.5 4.83333,343.5 -0.5,343.5 Z M 71.5,287.5 C 103.502,287.333 135.502,287.5 167.5,288C 172,288.5 174.5,291 175,295.5C 175.667,308.833 175.667,322.167 175,335.5C 174.5,340 172,342.5 167.5,343C 135.5,343.667 103.5,343.667 71.5,343C 67,342.5 64.5,340 64,335.5C 63.3333,322.167 63.3333,308.833 64,295.5C 64.6804,290.989 67.1804,288.323 71.5,287.5 Z M 15.5,311.5 C 26.1667,311.5 36.8333,311.5 47.5,311.5C 47.5,316.833 47.5,322.167 47.5,327.5C 36.8333,327.5 26.1667,327.5 15.5,327.5C 15.5,322.167 15.5,316.833 15.5,311.5 Z M 191.5,311.5 C 202.167,311.5 212.833,311.5 223.5,311.5C 223.5,316.833 223.5,322.167 223.5,327.5C 212.833,327.5 202.167,327.5 191.5,327.5C 191.5,322.167 191.5,316.833 191.5,311.5 Z M 95.5,359.5 C 111.5,359.5 127.5,359.5 143.5,359.5C 143.5,372.833 143.5,386.167 143.5,399.5C 127.5,399.5 111.5,399.5 95.5,399.5C 95.5,386.167 95.5,372.833 95.5,359.5 Z M 63.5,415.5 C 100.833,415.5 138.167,415.5 175.5,415.5C 175.5,420.833 175.5,426.167 175.5,431.5C 138.167,431.5 100.833,431.5 63.5,431.5C 63.5,426.167 63.5,420.833 63.5,415.5 Z"/></g>
<g><path style="opacity:0.995" fill="#000000" d="M 511.5,295.5 C 511.5,311.5 511.5,327.5 511.5,343.5C 506.167,343.5 500.833,343.5 495.5,343.5C 495.5,386.167 495.5,428.833 495.5,471.5C 490.167,471.5 484.833,471.5 479.5,471.5C 479.5,428.833 479.5,386.167 479.5,343.5C 473.794,343.171 468.128,343.505 462.5,344.5C 456.05,357.224 445.716,362.224 431.5,359.5C 431.5,372.833 431.5,386.167 431.5,399.5C 442.167,399.5 452.833,399.5 463.5,399.5C 463.5,415.5 463.5,431.5 463.5,447.5C 458.167,447.5 452.833,447.5 447.5,447.5C 447.5,466.167 447.5,484.833 447.5,503.5C 442.167,503.5 436.833,503.5 431.5,503.5C 431.5,484.833 431.5,466.167 431.5,447.5C 404.833,447.5 378.167,447.5 351.5,447.5C 351.5,466.167 351.5,484.833 351.5,503.5C 346.167,503.5 340.833,503.5 335.5,503.5C 335.5,484.833 335.5,466.167 335.5,447.5C 330.167,447.5 324.833,447.5 319.5,447.5C 319.5,431.5 319.5,415.5 319.5,399.5C 330.167,399.5 340.833,399.5 351.5,399.5C 351.5,386.167 351.5,372.833 351.5,359.5C 337.284,362.224 326.95,357.224 320.5,344.5C 314.872,343.505 309.206,343.171 303.5,343.5C 303.5,386.167 303.5,428.833 303.5,471.5C 298.167,471.5 292.833,471.5 287.5,471.5C 287.5,428.833 287.5,386.167 287.5,343.5C 282.167,343.5 276.833,343.5 271.5,343.5C 271.5,327.5 271.5,311.5 271.5,295.5C 287.5,295.5 303.5,295.5 319.5,295.5C 319.205,284.925 323.872,277.425 333.5,273C 352.771,271.851 372.104,271.351 391.5,271.5C 409.833,271.667 428.167,271.833 446.5,272C 457.802,275.796 463.468,283.629 463.5,295.5C 479.5,295.5 495.5,295.5 511.5,295.5 Z M 343.5,287.5 C 375.502,287.333 407.502,287.5 439.5,288C 444,288.5 446.5,291 447,295.5C 447.667,308.833 447.667,322.167 447,335.5C 446.5,340 444,342.5 439.5,343C 407.5,343.667 375.5,343.667 343.5,343C 339,342.5 336.5,340 336,335.5C 335.333,322.167 335.333,308.833 336,295.5C 336.68,290.989 339.18,288.323 343.5,287.5 Z M 287.5,311.5 C 298.167,311.5 308.833,311.5 319.5,311.5C 319.5,316.833 319.5,322.167 319.5,327.5C 308.833,327.5 298.167,327.5 287.5,327.5C 287.5,322.167 287.5,316.833 287.5,311.5 Z M 463.5,311.5 C 474.167,311.5 484.833,311.5 495.5,311.5C 495.5,316.833 495.5,322.167 495.5,327.5C 484.833,327.5 474.167,327.5 463.5,327.5C 463.5,322.167 463.5,316.833 463.5,311.5 Z M 367.5,359.5 C 383.5,359.5 399.5,359.5 415.5,359.5C 415.5,372.833 415.5,386.167 415.5,399.5C 399.5,399.5 383.5,399.5 367.5,399.5C 367.5,386.167 367.5,372.833 367.5,359.5 Z M 335.5,415.5 C 372.833,415.5 410.167,415.5 447.5,415.5C 447.5,420.833 447.5,426.167 447.5,431.5C 410.167,431.5 372.833,431.5 335.5,431.5C 335.5,426.167 335.5,420.833 335.5,415.5 Z"/></g>
</svg>
